<?xml version="1.0" encoding="utf-8" ?>
<svg xmlns="http://www.w3.org/2000/svg" xmlns:xlink="http://www.w3.org/1999/xlink" width="1024" height="1024">
	<defs>
		<linearGradient id="gradient_0" gradientUnits="userSpaceOnUse" x1="310.43576" y1="137.89975" x2="358.77704" y2="72.861794">
			<stop offset="0" stop-color="#94D5F5"/>
			<stop offset="1" stop-color="#A9E7F3"/>
		</linearGradient>
	</defs>
	<path fill="url(#gradient_0)" transform="scale(2 2)" d="M264.891 104.296C275.725 86.851 289.907 72.119 308.689 63.3243C319.379 58.3186 332.679 54.1995 343.597 61.0123C367.548 75.9563 369.496 123.608 365.192 148.244C364.154 154.182 362.293 160.031 361.379 165.958C360.207 165.323 358.223 161.745 357.321 160.488C340.153 136.564 311.77 114.671 282.732 107.96C277.74 106.806 269.099 106.622 264.891 104.296Z"/>
	<path fill="#9DC0F7" transform="scale(2 2)" d="M77.8432 165.958C71.3709 139.902 67.5739 119.03 75.0987 91.8295C92.7633 27.9751 155.421 68.4583 175.717 105.211L175.263 105.319C169.803 106.588 164.222 106.906 158.76 108.401C131.806 115.778 98.0043 135.892 82.2856 159.705C81.1927 161.36 79.6972 165.163 77.8432 165.958Z"/>
	<defs>
		<linearGradient id="gradient_1" gradientUnits="userSpaceOnUse" x1="86.035545" y1="348.90851" x2="337.84427" y2="137.60965">
			<stop offset="0" stop-color="#B2C0F7"/>
			<stop offset="1" stop-color="#CCF2F5"/>
		</linearGradient>
	</defs>
	<path fill="url(#gradient_1)" transform="scale(2 2)" d="M175.717 105.211C177.071 105.691 195.117 104.388 198.327 104.32C220.094 103.864 243.513 105.47 264.891 104.296C269.099 106.622 277.74 106.806 282.732 107.96C311.77 114.671 340.153 136.564 357.321 160.488C358.223 161.745 360.207 165.323 361.379 165.958C376.256 195.67 385.114 213.96 384.723 249.619C359.467 261.099 358.704 284.554 360.063 308.762C357.943 311.502 356.418 314.644 354.336 317.41C345.359 329.33 334.013 339.165 321.77 347.597C319.238 349.34 316.603 350.942 314.31 353.004L313.998 353.12C307.385 355.646 301.254 359.592 294.724 362.388C274.56 371.022 254.672 375.306 232.837 376.245C220.647 376.255 208.553 375.956 196.378 375.276C198.486 377.537 200.538 370.971 200.657 384.094C200.736 392.798 197.339 405.028 190.992 411.39C176.894 425.519 153.543 427.305 138.999 412.698C127.286 400.934 127.639 390.627 127.639 375.166L127.653 353.004C123.599 349.732 118.873 347.189 114.699 344.009C70.4938 310.32 46.2154 258.53 61.4942 202.896C63.8951 194.154 67.3304 185.035 71.6819 177.074C73.6041 173.557 76.8318 169.83 77.8432 165.958C79.6972 165.163 81.1927 161.36 82.2856 159.705C98.0043 135.892 131.806 115.778 158.76 108.401C164.222 106.906 169.803 106.588 175.263 105.319L175.717 105.211ZM134.502 216.111C116.815 217.375 103.507 232.747 104.787 250.432C106.068 268.118 121.451 281.412 139.136 280.115C156.798 278.82 170.07 263.461 168.791 245.798C167.513 228.136 152.166 214.849 134.502 216.111ZM293.935 217.517C276.869 219.048 264.292 234.148 265.871 251.209C267.451 268.27 282.587 280.804 299.643 279.176C316.631 277.554 329.104 262.493 327.531 245.5C325.958 228.508 310.932 215.992 293.935 217.517ZM195.905 251.305C188.993 252.667 183.702 258.074 185.372 265.476C186.923 272.352 194.601 276.975 200.227 280.428C213.231 288.408 228.289 286.013 240.364 277.788C244.613 274.715 249.991 270.886 250.899 265.303C251.895 259.183 247.682 252.359 241.347 251.532C232.066 250.319 227.837 258.295 218.686 258.299C208.757 258.303 204.07 250.806 195.905 251.305Z"/>
	<path fill="white" transform="scale(2 2)" d="M139.136 280.115C121.451 281.412 106.068 268.118 104.787 250.432C103.507 232.747 116.815 217.375 134.502 216.111C152.166 214.849 167.513 228.136 168.791 245.798C170.07 263.461 156.798 278.82 139.136 280.115Z"/>
	<path fill="#8DB0F7" transform="scale(2 2)" d="M299.643 279.176C282.587 280.804 267.451 268.27 265.871 251.209C264.292 234.148 276.869 219.048 293.935 217.517C310.932 215.992 325.958 228.508 327.531 245.5C329.104 262.493 316.631 277.554 299.643 279.176Z"/>
	<defs>
		<linearGradient id="gradient_2" gradientUnits="userSpaceOnUse" x1="288.71249" y1="416.12497" x2="469.0051" y2="281.436">
			<stop offset="0" stop-color="#7AA3F5"/>
			<stop offset="1" stop-color="#D4FAF7"/>
		</linearGradient>
	</defs>
	<path fill="url(#gradient_2)" transform="scale(2 2)" d="M384.723 249.619C396.685 246.353 432.83 244.269 443.559 250.467C455.333 257.268 459.705 273.118 452.633 284.814C445.497 296.617 435.271 296.809 423.02 296.804L407.727 296.786C407.428 300.215 407.678 303.668 407.713 307.105L407.726 381.002C407.726 391.932 409.342 422.587 397.951 429.3C390.694 439.042 369.522 450.165 357.71 453.012C326.943 460.429 302.824 446.912 295.505 416.029C295.137 408.082 296.034 401.239 298.793 393.763C302.627 385.206 307.141 379.595 314.31 373.694C327.876 363.632 343.329 359.652 360.063 359.783L360.064 325.772C360.061 320.112 359.843 314.415 360.063 308.762C358.704 284.554 359.467 261.099 384.723 249.619Z"/>
	<path fill="white" transform="scale(2 2)" d="M240.364 277.788C228.289 286.013 213.231 288.408 200.227 280.428C194.601 276.975 186.923 272.352 185.372 265.476C183.702 258.074 188.993 252.667 195.905 251.305C204.07 250.806 208.757 258.303 218.686 258.299C227.837 258.295 232.066 250.319 241.347 251.532C247.682 252.359 251.895 259.183 250.899 265.303C249.991 270.886 244.613 274.715 240.364 277.788Z"/>
	<defs>
		<linearGradient id="gradient_3" gradientUnits="userSpaceOnUse" x1="249.33549" y1="414.02866" x2="304.32123" y2="345.84763">
			<stop offset="0" stop-color="#C1D8F4"/>
			<stop offset="1" stop-color="#D5ECF5"/>
		</linearGradient>
	</defs>
	<path fill="url(#gradient_3)" transform="scale(2 2)" d="M232.837 376.245C254.672 375.306 274.56 371.022 294.724 362.388C301.254 359.592 307.385 355.646 313.998 353.12L314.31 353.004C314.59 359.884 314.281 366.807 314.31 373.694C307.141 379.595 302.627 385.206 298.793 393.763C296.034 401.239 295.137 408.082 295.505 416.029C266.305 434.455 226.767 410.213 232.837 376.245Z"/>
</svg>
